<svg version="1" xmlns="http://www.w3.org/2000/svg" width="957.333" height="957.333" viewBox="0 0 718.000000 718.000000"><path d="M329 2.6c-26.8 2.2-28.2 2.5-54.2 8.8-25 6.1-28.4 7.2-52.5 17.2-23.9 9.8-27.6 11.7-49.8 25.3-21.9 13.4-25.8 16.2-45.6 33.1-19.9 16.9-23.3 20.3-40.1 40-16.7 19.7-19.6 23.7-32.9 45.5-13.6 22.2-15.5 25.9-25.3 49.8-10 24.1-11.1 27.5-17.2 52.5-6.4 26.4-6.5 27-8.8 55.3L.3 358.8l2.3 28.8c2.3 28.6 2.4 29.1 8.8 55.6 6.1 25 7.2 28.4 17.2 52.5 9.8 23.9 11.7 27.6 25.3 49.8 13.3 21.8 16.2 25.8 32.9 45.5 16.8 19.7 20.2 23.1 40.1 40 19.8 16.9 23.7 19.7 45.6 33.1 22.2 13.6 25.9 15.5 49.8 25.3 24.1 10 27.5 11.1 52.5 17.2 26.4 6.4 27 6.5 55.5 8.8l28.7 2.3 28.8-2.3c28.4-2.3 29-2.4 55.4-8.8 25-6.1 28.4-7.2 52.5-17.2 23.9-9.8 27.6-11.7 49.8-25.3 21.9-13.4 25.8-16.2 45.6-33.1 19.9-16.9 23.3-20.3 40.1-40 16.7-19.7 19.6-23.7 32.9-45.5 13.6-22.2 15.5-25.9 25.3-49.8 10-24.1 11.1-27.5 17.2-52.5 6.4-26.3 6.5-27.1 8.8-55.4l2.3-28.6-2.3-28.9c-2.3-28.5-2.4-29-8.8-55.5-6.1-25-7.2-28.4-17.2-52.5-9.8-23.9-11.7-27.6-25.3-49.8-13.3-21.8-16.2-25.8-32.9-45.5-16.8-19.7-20.2-23.1-40.1-40-19.8-16.9-23.7-19.7-45.6-33.1-22.2-13.6-25.9-15.5-49.8-25.3-24.1-10-27.5-11.1-52.5-17.2-26.6-6.5-26.8-6.5-56.7-8.9-16.5-1.4-30-2.4-30-2.4 0 .1-12.4 1.2-27.5 2.5zm59.9 151.5c18.4 2.9 45.1 15.4 49.2 23.1.9 1.7.3 2.7-4.1 7.1-26.1 26.1-79.8 119.7-106.2 185.2-10.5 26.1-18.8 53.6-20.3 67-.3 3.3-.8 7-1.1 8.2-.4 2.2-.1 2.3 5.4 2.3 7.9 0 23.6-2 65.2-8.5 36.4-5.6 62.5-8.4 63.9-6.9.5.5 3.3 10.7 6.4 22.6l5.5 21.7-5.1.5c-2.9.3-8.3.8-12.2 1.1-3.8.4-18 1.9-31.5 3.5-76.8 9-100.5 10.3-114 6.1-14.9-4.5-30.1-14-40.5-25.3-6.1-6.5-5.9-5.8-5.5-23.3.9-49.1 40-149.3 91.8-235.5 15.9-26.5 31.8-48.2 36.6-50 2.2-.8 6-.5 16.5 1.1z"/></svg>